<svg xmlns="http://www.w3.org/2000/svg" width="17" height="17" viewBox="0 0 17 17"><g><g><path fill="#84bc22" d="M4.16 2.657l2.966 2.967a1.061 1.061 0 1 1-1.502 1.502L2.657 4.16l-.843.842a1.063 1.063 0 0 1-1.813-.75V1.062C0 .477.477.001 1.063.001H4.25a1.062 1.062 0 0 1 .751 1.813zM15.936 0c.587 0 1.062.476 1.062 1.062V4.25a1.064 1.064 0 0 1-1.062 1.063c-.276 0-.548-.109-.751-.312l-.843-.842-2.967 2.967a1.061 1.061 0 1 1-1.502-1.502l2.967-2.967-.843-.843A1.064 1.064 0 0 1 12.75.001zM5.624 9.873a1.062 1.062 0 1 1 1.502 1.503L4.16 14.343l.843.843a1.062 1.062 0 0 1-.752 1.813H1.063a1.062 1.062 0 0 1-1.062-1.062V12.75a1.062 1.062 0 0 1 1.813-.752l.843.843zm10.72 1.895c.396.163.655.552.655.982v3.187c0 .587-.475 1.062-1.062 1.062H12.75a1.062 1.062 0 0 1-.752-1.813l.843-.843-2.967-2.967a1.062 1.062 0 1 1 1.502-1.503l2.967 2.968.843-.843a1.065 1.065 0 0 1 1.157-.23z"/></g></g></svg>